<svg width="188px" height="32px" viewBox="0 0 188 32" version="1.1" xmlns="http://www.w3.org/2000/svg" xmlns:xlink="http://www.w3.org/1999/xlink">
    <!-- Generator: Sketch 63.1 (92452) - https://sketch.com -->
    <title>indomascot_logo_gradient</title>
    <desc>Created with Sketch.</desc>
    <g id="indomascot_logo_gradient" stroke="none" stroke-width="1" fill="none" fill-rule="evenodd">
        <path d="M5.92,30.96 C5.97333333,30.9333333 6.3,30.88 6.9,30.8 C7.5,30.72 8.17333333,30.6333333 8.92,30.54 C9.66666667,30.4466667 10.3866667,30.3666667 11.08,30.3 C11.7733333,30.2333333 12.24,30.2 12.48,30.2 C12.6933333,29.0266667 12.94,27.7133333 13.22,26.26 C13.5,24.8066667 13.78,23.3066667 14.06,21.76 C14.34,20.2133333 14.6333333,18.6533333 14.94,17.08 C15.2466667,15.5066667 15.5466667,13.9866667 15.84,12.52 C16.5333333,9.08 17.2266667,5.57333333 17.92,2 L17.92,2 L11.68,3 C11.04,6.6 10.3866667,10.1066667 9.72,13.52 C9.42666667,14.9866667 9.12666667,16.5066667 8.82,18.08 C8.51333333,19.6533333 8.19333333,21.2066667 7.86,22.74 C7.52666667,24.2733333 7.2,25.74 6.88,27.14 C6.56,28.54 6.24,29.8133333 5.92,30.96 Z M14.4,31.2 L20.24,29.84 C20.64,27.7866667 21.0133333,25.8133333 21.36,23.92 C21.52,23.12 21.6666667,22.3 21.8,21.46 C21.9333333,20.62 22.0666667,19.8066667 22.2,19.02 C22.3333333,18.2333333 22.4666667,17.4933333 22.6,16.8 C22.7333333,16.1066667 22.84,15.52 22.92,15.04 C23,15.52 23.0866667,16.1133333 23.18,16.82 C23.2733333,17.5266667 23.3666667,18.28 23.46,19.08 C23.5533333,19.88 23.6533333,20.72 23.76,21.6 C23.8666667,22.48 23.96,23.3333333 24.04,24.16 C24.2533333,26.1066667 24.4533333,28.16 24.64,30.32 C24.9866667,30.2133333 25.5133333,30.0733333 26.22,29.9 C26.9266667,29.7266667 27.6333333,29.56 28.34,29.4 C29.0466667,29.24 29.6733333,29.1 30.22,28.98 C30.7666667,28.86 31.08,28.8 31.16,28.8 C31.2666667,27.9466667 31.4133333,26.9 31.6,25.66 C31.7866667,24.42 32.0133333,23.0666667 32.28,21.6 C32.5466667,20.1333333 32.8333333,18.6133333 33.14,17.04 C33.4466667,15.4666667 33.76,13.9066667 34.08,12.36 C34.7733333,8.78666667 35.5733333,5 36.48,1 L36.48,1 L31.6,1.6 C31.1733333,3.62666667 30.76,5.57333333 30.36,7.44 C30.2,8.24 30.0333333,9.06666667 29.86,9.92 C29.6866667,10.7733333 29.52,11.6066667 29.36,12.42 C29.2,13.2333333 29.0533333,14.0066667 28.92,14.74 C28.7866667,15.4733333 28.6666667,16.12 28.56,16.68 C28.4266667,16.12 28.2933333,15.4733333 28.16,14.74 C28.0266667,14.0066667 27.8933333,13.24 27.76,12.44 C27.6266667,11.64 27.4866667,10.8066667 27.34,9.94 C27.1933333,9.07333333 27.0533333,8.24 26.92,7.44 C26.6533333,5.57333333 26.3466667,3.61333333 26,1.56 C25.44,1.61333333 24.8,1.66 24.08,1.7 C23.36,1.74 22.6533333,1.78666667 21.96,1.84 C21.1866667,1.89333333 20.3866667,1.94666667 19.56,2 C19.4266667,3.22666667 19.2466667,4.58 19.02,6.06 C18.7933333,7.54 18.5466667,9.07333333 18.28,10.66 C18.0133333,12.2466667 17.7266667,13.86 17.42,15.5 C17.1133333,17.14 16.8266667,18.7066667 16.56,20.2 C15.8666667,23.7733333 15.1466667,27.44 14.4,31.2 L14.4,31.2 Z M34.68,31.2 C36.4666667,31.2 38.1533333,30.88 39.74,30.24 C41.3266667,29.6 42.7866667,28.7533333 44.12,27.7 C45.4533333,26.6466667 46.6466667,25.42 47.7,24.02 C48.7533333,22.62 49.64,21.1533333 50.36,19.62 C51.08,18.0866667 51.64,16.54 52.04,14.98 C52.44,13.42 52.64,11.9466667 52.64,10.56 C52.64,9.36 52.4933333,8.22666667 52.2,7.16 C51.9066667,6.09333333 51.4466667,5.16 50.82,4.36 C50.1933333,3.56 49.38,2.93333333 48.38,2.48 C47.38,2.02666667 46.16,1.8 44.72,1.8 C43.4933333,1.8 42.2933333,1.89333333 41.12,2.08 C39.9466667,2.26666667 38.7866667,2.46666667 37.64,2.68 C37.48,3.82666667 37.2733333,5.10666667 37.02,6.52 C36.7666667,7.93333333 36.5066667,9.41333333 36.24,10.96 C35.9733333,12.5066667 35.6933333,14.0733333 35.4,15.66 C35.1066667,17.2466667 34.8266667,18.7733333 34.56,20.24 C33.8666667,23.7333333 33.16,27.32 32.44,31 C32.8133333,31.0533333 33.1866667,31.1 33.56,31.14 C33.9333333,31.18 34.3066667,31.2 34.68,31.2 Z M39.44,26.16 C39.7333333,24.2666667 40.04,22.52 40.36,20.92 C40.68,19.32 41,17.7866667 41.32,16.32 C41.64,14.8533333 41.96,13.4 42.28,11.96 C42.6,10.52 42.9066667,9.01333333 43.2,7.44 C44.3733333,7.44 45.2333333,7.72 45.78,8.28 C46.3266667,8.84 46.6,9.61333333 46.6,10.6 C46.6,11.24 46.5133333,12 46.34,12.88 C46.1666667,13.76 45.92,14.7066667 45.6,15.72 C45.28,16.7333333 44.9,17.7733333 44.46,18.84 C44.02,19.9066667 43.5333333,20.92 43,21.88 C42.4666667,22.84 41.9,23.6866667 41.3,24.42 C40.7,25.1533333 40.08,25.7333333 39.44,26.16 Z M57.16,31.16 C58.2,31.16 59.2933333,30.9266667 60.44,30.46 C61.5866667,29.9933333 62.72,29.3133333 63.84,28.42 C64.96,27.5266667 66.0333333,26.4466667 67.06,25.18 C68.0866667,23.9133333 68.9866667,22.4733333 69.76,20.86 C70.5333333,19.2466667 71.1533333,17.4733333 71.62,15.54 C72.0866667,13.6066667 72.32,11.5466667 72.32,9.36 C72.32,8.37333333 72.2266667,7.38666667 72.04,6.4 C71.8533333,5.41333333 71.54,4.52666667 71.1,3.74 C70.66,2.95333333 70.0466667,2.31333333 69.26,1.82 C68.4733333,1.32666667 67.48,1.08 66.28,1.08 C64.8933333,1.08 63.56,1.41333333 62.28,2.08 C61,2.74666667 59.8,3.64666667 58.68,4.78 C57.56,5.91333333 56.5333333,7.21333333 55.6,8.68 C54.6666667,10.1466667 53.88,11.6933333 53.24,13.32 C52.6,14.9466667 52.0933333,16.5866667 51.72,18.24 C51.3466667,19.8933333 51.16,21.4666667 51.16,22.96 C51.16,24.4 51.3133333,25.6333333 51.62,26.66 C51.9266667,27.6866667 52.3466667,28.5266667 52.88,29.18 C53.4133333,29.8333333 54.04,30.3266667 54.76,30.66 C55.48,30.9933333 56.28,31.16 57.16,31.16 Z M59.32,24.56 C59,24.56 58.7,24.4733333 58.42,24.3 C58.14,24.1266667 57.9066667,23.92 57.72,23.68 C57.5333333,23.44 57.3866667,23.16 57.28,22.84 C57.1733333,22.52 57.12,22.2133333 57.12,21.92 C57.12,21.28 57.1866667,20.52 57.32,19.64 C57.4533333,18.76 57.6733333,17.86 57.98,16.94 C58.2866667,16.02 58.6533333,15.1133333 59.08,14.22 C59.5066667,13.3266667 60.0066667,12.5266667 60.58,11.82 C61.1533333,11.1133333 61.8,10.5466667 62.52,10.12 C63.24,9.69333333 64.0266667,9.48 64.88,9.48 C65.3066667,9.48 65.6466667,9.59333333 65.9,9.82 C66.1533333,10.0466667 66.34,10.32 66.46,10.64 C66.58,10.96 66.66,11.3066667 66.7,11.68 C66.74,12.0533333 66.76,12.4 66.76,12.72 C66.76,13.84 66.5933333,15.08 66.26,16.44 C65.9266667,17.8 65.4533333,19.08 64.84,20.28 C64.2266667,21.48 63.4533333,22.4933333 62.52,23.32 C61.5866667,24.1466667 60.52,24.56 59.32,24.56 Z M68.16,30.76 L74.76,30.32 C74.7866667,30.24 74.8933333,29.8866667 75.08,29.26 C75.2666667,28.6333333 75.5,27.8333333 75.78,26.86 C76.06,25.8866667 76.36,24.8333333 76.68,23.7 C77,22.5666667 77.3,21.4733333 77.58,20.42 C77.86,19.3666667 78.1066667,18.4333333 78.32,17.62 C78.5333333,16.8066667 78.6666667,16.2266667 78.72,15.88 L78.72,15.88 L79.32,15.88 L78.04,30.72 C78.92,30.6666667 79.6933333,30.62 80.36,30.58 C81.0266667,30.54 81.8266667,30.5066667 82.76,30.48 C83.1066667,29.36 83.5066667,28.1866667 83.96,26.96 C84.4133333,25.7333333 84.8733333,24.48 85.34,23.2 C85.8066667,21.92 86.2666667,20.66 86.72,19.42 C87.1733333,18.18 87.5866667,17 87.96,15.88 L87.96,15.88 L88.32,15.88 C88.1866667,16.5733333 88.0533333,17.4066667 87.92,18.38 C87.7866667,19.3533333 87.66,20.36 87.54,21.4 L87.54,21.4 L87.18,24.52 C87.06,25.56 86.9666667,26.5066667 86.9,27.36 C86.8333333,28.2133333 86.78,28.9333333 86.74,29.52 C86.7,30.1066667 86.68,30.4666667 86.68,30.6 L86.68,30.6 L93.64,29.36 C93.88,26.2133333 94.16,22.9866667 94.48,19.68 C94.6133333,18.2666667 94.7666667,16.7733333 94.94,15.2 C95.1133333,13.6266667 95.2933333,12.0333333 95.48,10.42 C95.6666667,8.80666667 95.88,7.18666667 96.12,5.56 C96.36,3.93333333 96.6133333,2.34666667 96.88,0.8 C96.16,0.933333333 95.5,1.04666667 94.9,1.14 C94.3,1.23333333 93.7066667,1.32666667 93.12,1.42 C92.5333333,1.51333333 91.9466667,1.6 91.36,1.68 C90.7733333,1.76 90.1466667,1.82666667 89.48,1.88 C89.2133333,2.44 88.9266667,3.08666667 88.62,3.82 C88.3133333,4.55333333 87.9933333,5.32666667 87.66,6.14 C87.3266667,6.95333333 87,7.78666667 86.68,8.64 C86.36,9.49333333 85.9466667,10.5933333 85.44,11.94 C84.9333333,13.2866667 84.2933333,14.9733333 83.52,17 L83.52,17 L83,17 C83.32,15 83.5733333,13.3333333 83.76,12 C83.9466667,10.6666667 84.1066667,9.57333333 84.24,8.72 C84.3733333,7.86666667 84.5,7.04 84.62,6.24 C84.74,5.44 84.8466667,4.67333333 84.94,3.94 C85.0333333,3.20666667 85.12,2.54666667 85.2,1.96 C83.68,2.09333333 82.2666667,2.24 80.96,2.4 C79.6533333,2.56 78.2666667,2.64 76.8,2.64 C76.48,3.86666667 76.1133333,5.2 75.7,6.64 C75.2866667,8.08 74.84,9.57333333 74.36,11.12 C73.88,12.6666667 73.4,14.2266667 72.92,15.8 C72.44,17.3733333 71.9733333,18.88 71.52,20.32 C70.4533333,23.7333333 69.3333333,27.2133333 68.16,30.76 L68.16,30.76 Z M104.48,30.92 C105.12,30.8133333 105.84,30.6933333 106.64,30.56 C107.44,30.4266667 108.173333,30.3066667 108.84,30.2 C109.64,30.12 110.44,30.0133333 111.24,29.88 C111.4,25.7466667 111.546667,21.84 111.68,18.16 C111.76,16.5866667 111.84,14.9866667 111.92,13.36 C112,11.7333333 112.08,10.1733333 112.16,8.68 C112.24,7.18666667 112.326667,5.80666667 112.42,4.54 C112.513333,3.27333333 112.6,2.21333333 112.68,1.36 C110.893333,1.68 109.06,1.93333333 107.18,2.12 C105.3,2.30666667 103.453333,2.46666667 101.64,2.6 C101.32,3.8 100.946667,5.12 100.52,6.56 C100.093333,8 99.6466667,9.5 99.18,11.06 C98.7133333,12.62 98.2466667,14.1866667 97.78,15.76 C97.3133333,17.3333333 96.8666667,18.84 96.44,20.28 C95.4,23.72 94.3466667,27.2133333 93.28,30.76 C94.1066667,30.6533333 94.9466667,30.5466667 95.8,30.44 C96.4933333,30.36 97.24,30.2733333 98.04,30.18 C98.84,30.0866667 99.5333333,30 100.12,29.92 L100.12,29.92 L101.72,24.16 L105.2,24.16 C105.146667,24.6933333 105.086667,25.3333333 105.02,26.08 C104.953333,26.8266667 104.88,27.5733333 104.8,28.32 C104.693333,29.1733333 104.586667,30.04 104.48,30.92 Z M102.7544,20.1592 L102.68,20.16 L105.16,10.12 L106.08,6.68 L106.68,6.64 L106.44,10.12 C106.28,11.6933333 106.146667,13.16 106.04,14.52 C105.986667,15.08 105.933333,15.6533333 105.88,16.24 C105.826667,16.8266667 105.78,17.3666667 105.74,17.86 C105.7,18.3533333 105.66,18.7933333 105.62,19.18 C105.58,19.5666667 105.56,19.84 105.56,20 C105.453333,20.0266667 105.266667,20.0466667 105,20.06 C104.733333,20.0733333 104.446667,20.0866667 104.14,20.1 C103.833333,20.1133333 103.54,20.1266667 103.26,20.14 C102.98,20.1533333 102.786667,20.16 102.68,20.16 L102.7544,20.1592 Z M118.08,31.08 C119.6,31.08 121.02,30.84 122.34,30.36 C123.66,29.88 124.806667,29.2 125.78,28.32 C126.753333,27.44 127.526667,26.3933333 128.1,25.18 C128.673333,23.9666667 128.96,22.6133333 128.96,21.12 C128.96,19.7066667 128.78,18.54 128.42,17.62 C128.06,16.7 127.613333,15.9333333 127.08,15.32 C126.546667,14.7066667 125.966667,14.2066667 125.34,13.82 C124.713333,13.4333333 124.133333,13.0533333 123.6,12.68 C123.066667,12.3066667 122.62,11.9066667 122.26,11.48 C121.9,11.0533333 121.72,10.52 121.72,9.88 C121.72,9.48 121.826667,9.10666667 122.04,8.76 C122.253333,8.41333333 122.513333,8.11333333 122.82,7.86 C123.126667,7.60666667 123.433333,7.4 123.74,7.24 C124.046667,7.08 124.306667,7 124.52,7 C124.973333,7 125.34,7.18 125.62,7.54 C125.9,7.9 126.04,8.48 126.04,9.28 C126.04,9.49333333 126.02,9.70666667 125.98,9.92 C125.94,10.1333333 125.893333,10.3466667 125.84,10.56 L125.84,10.56 L131.64,8.88 C131.693333,8.45333333 131.753333,8.05333333 131.82,7.68 C131.886667,7.30666667 131.92,6.93333333 131.92,6.56 C131.92,5.68 131.78,4.94666667 131.5,4.36 C131.22,3.77333333 130.846667,3.28666667 130.38,2.9 C129.913333,2.51333333 129.36,2.23333333 128.72,2.06 C128.08,1.88666667 127.4,1.8 126.68,1.8 C125.373333,1.8 123.986667,2.05333333 122.52,2.56 C121.053333,3.06666667 119.7,3.75333333 118.46,4.62 C117.22,5.48666667 116.186667,6.52 115.36,7.72 C114.533333,8.92 114.12,10.2133333 114.12,11.6 C114.12,12.4533333 114.333333,13.2266667 114.76,13.92 C115.186667,14.6133333 115.7,15.24 116.3,15.8 C116.9,16.36 117.56,16.8933333 118.28,17.4 C119,17.9066667 119.666667,18.4066667 120.28,18.9 C120.893333,19.3933333 121.406667,19.9133333 121.82,20.46 C122.233333,21.0066667 122.44,21.6 122.44,22.24 C122.44,22.6133333 122.353333,22.94 122.18,23.22 C122.006667,23.5 121.773333,23.7466667 121.48,23.96 C121.186667,24.1733333 120.866667,24.3333333 120.52,24.44 C120.173333,24.5466667 119.84,24.6 119.52,24.6 C119.146667,24.6 118.726667,24.5133333 118.26,24.34 C117.793333,24.1666667 117.326667,23.9466667 116.86,23.68 C116.393333,23.4133333 115.973333,23.1 115.6,22.74 C115.226667,22.38 114.946667,22.0266667 114.76,21.68 L114.76,21.68 L111.8,27.48 C112.786667,28.7333333 113.813333,29.6466667 114.88,30.22 C115.946667,30.7933333 117.013333,31.08 118.08,31.08 Z M135.52,31.08 C136.346667,31.08 137.2,30.9066667 138.08,30.56 C138.96,30.2133333 139.833333,29.6733333 140.7,28.94 C141.566667,28.2066667 142.393333,27.3 143.18,26.22 C143.966667,25.14 144.68,23.8666667 145.32,22.4 L145.32,22.4 L140.76,20.56 C140.653333,21.0133333 140.466667,21.4666667 140.2,21.92 C139.933333,22.3733333 139.64,22.78 139.32,23.14 C139,23.5 138.653333,23.7933333 138.28,24.02 C137.906667,24.2466667 137.573333,24.36 137.28,24.36 C136.906667,24.36 136.606667,24.1866667 136.38,23.84 C136.153333,23.4933333 136.04,22.8933333 136.04,22.04 C136.04,21.48 136.14,20.7533333 136.34,19.86 C136.54,18.9666667 136.8,18.0266667 137.12,17.04 C137.44,16.0533333 137.813333,15.0733333 138.24,14.1 C138.666667,13.1266667 139.106667,12.2466667 139.56,11.46 C140.013333,10.6733333 140.473333,10.0333333 140.94,9.54 C141.406667,9.04666667 141.853333,8.8 142.28,8.8 C142.706667,8.8 143.08,9.13333333 143.4,9.8 L143.4,9.8 L148.64,8.4 C148.666667,8.21333333 148.68,8.03333333 148.68,7.86 L148.68,7.86 L148.68,7.36 C148.68,6.50666667 148.553333,5.73333333 148.3,5.04 C148.046667,4.34666667 147.706667,3.76 147.28,3.28 C146.853333,2.8 146.346667,2.42666667 145.76,2.16 C145.173333,1.89333333 144.56,1.76 143.92,1.76 C141.84,1.76 139.94,2.35333333 138.22,3.54 C136.5,4.72666667 135.013333,6.29333333 133.76,8.24 C132.506667,10.1866667 131.533333,12.38 130.84,14.82 C130.146667,17.26 129.8,19.7333333 129.8,22.24 C129.8,23.7066667 129.953333,24.9866667 130.26,26.08 C130.566667,27.1733333 130.973333,28.0933333 131.48,28.84 C131.986667,29.5866667 132.58,30.1466667 133.26,30.52 C133.94,30.8933333 134.693333,31.08 135.52,31.08 Z M151.64,31.16 C152.68,31.16 153.773333,30.9266667 154.92,30.46 C156.066667,29.9933333 157.2,29.3133333 158.32,28.42 C159.44,27.5266667 160.513333,26.4466667 161.54,25.18 C162.566667,23.9133333 163.466667,22.4733333 164.24,20.86 C165.013333,19.2466667 165.633333,17.4733333 166.1,15.54 C166.566667,13.6066667 166.8,11.5466667 166.8,9.36 C166.8,8.37333333 166.706667,7.38666667 166.52,6.4 C166.333333,5.41333333 166.02,4.52666667 165.58,3.74 C165.14,2.95333333 164.526667,2.31333333 163.74,1.82 C162.953333,1.32666667 161.96,1.08 160.76,1.08 C159.373333,1.08 158.04,1.41333333 156.76,2.08 C155.48,2.74666667 154.28,3.64666667 153.16,4.78 C152.04,5.91333333 151.013333,7.21333333 150.08,8.68 C149.146667,10.1466667 148.36,11.6933333 147.72,13.32 C147.08,14.9466667 146.573333,16.5866667 146.2,18.24 C145.826667,19.8933333 145.64,21.4666667 145.64,22.96 C145.64,24.4 145.793333,25.6333333 146.1,26.66 C146.406667,27.6866667 146.826667,28.5266667 147.36,29.18 C147.893333,29.8333333 148.52,30.3266667 149.24,30.66 C149.96,30.9933333 150.76,31.16 151.64,31.16 Z M153.8,24.56 C153.48,24.56 153.18,24.4733333 152.9,24.3 C152.62,24.1266667 152.386667,23.92 152.2,23.68 C152.013333,23.44 151.866667,23.16 151.76,22.84 C151.653333,22.52 151.6,22.2133333 151.6,21.92 C151.6,21.28 151.666667,20.52 151.8,19.64 C151.933333,18.76 152.153333,17.86 152.46,16.94 C152.766667,16.02 153.133333,15.1133333 153.56,14.22 C153.986667,13.3266667 154.486667,12.5266667 155.06,11.82 C155.633333,11.1133333 156.28,10.5466667 157,10.12 C157.72,9.69333333 158.506667,9.48 159.36,9.48 C159.786667,9.48 160.126667,9.59333333 160.38,9.82 C160.633333,10.0466667 160.82,10.32 160.94,10.64 C161.06,10.96 161.14,11.3066667 161.18,11.68 C161.22,12.0533333 161.24,12.4 161.24,12.72 C161.24,13.84 161.073333,15.08 160.74,16.44 C160.406667,17.8 159.933333,19.08 159.32,20.28 C158.706667,21.48 157.933333,22.4933333 157,23.32 C156.066667,24.1466667 155,24.56 153.8,24.56 Z M166.96,31.04 L174.16,29.92 C174.533333,27.0933333 174.933333,24.36 175.36,21.72 C175.546667,20.6 175.733333,19.4266667 175.92,18.2 C176.106667,16.9733333 176.3,15.7666667 176.5,14.58 C176.7,13.3933333 176.906667,12.2466667 177.12,11.14 C177.333333,10.0333333 177.533333,9.02666667 177.72,8.12 C178.306667,8.01333333 178.9,7.92666667 179.5,7.86 C180.1,7.79333333 180.693333,7.68 181.28,7.52 C181.386667,7.06666667 181.5,6.52 181.62,5.88 C181.74,5.24 181.866667,4.61333333 182,4 L182,4 L182.44,1.84 C181.4,1.97333333 180.34,2.08666667 179.26,2.18 C178.18,2.27333333 177.006667,2.35333333 175.74,2.42 C174.473333,2.48666667 173.16,2.52 171.8,2.52 C171.106667,2.52 170.413333,2.50666667 169.72,2.48 C169.026667,2.45333333 168.333333,2.41333333 167.64,2.36 C167.613333,3.05333333 167.586667,3.70666667 167.56,4.32 C167.533333,4.88 167.52,5.44 167.52,6 C167.52,6.56 167.506667,7.05333333 167.48,7.48 C168.093333,7.66666667 168.713333,7.74666667 169.34,7.72 C169.966667,7.69333333 170.586667,7.72 171.2,7.8 C171.066667,8.78666667 170.913333,9.87333333 170.74,11.06 C170.566667,12.2466667 170.366667,13.4733333 170.14,14.74 C169.913333,16.0066667 169.68,17.2933333 169.44,18.6 C169.2,19.9066667 168.96,21.16 168.72,22.36 C168.16,25.2133333 167.573333,28.1066667 166.96,31.04 L166.96,31.04 Z" id="INDOMASCOT" fill="#003399" fill-rule="nonzero"></path>
    </g>
</svg>