<?xml version="1.0" standalone="no"?>
<!DOCTYPE svg PUBLIC "-//W3C//DTD SVG 20010904//EN"
 "http://www.w3.org/TR/2001/REC-SVG-20010904/DTD/svg10.dtd">
<svg version="1.0" xmlns="http://www.w3.org/2000/svg"
 width="500.000000pt" height="500.000000pt" viewBox="0 0 500.000000 500.000000"
 preserveAspectRatio="xMidYMid meet">
<metadata>
Created by potrace 1.14, written by Peter Selinger 2001-2017
</metadata>
<g transform="translate(0.000000,500.000000) scale(0.100000,-0.100000)"
fill="#000000" stroke="none">
<path d="M0 2500 l0 -2500 2500 0 2500 0 0 2500 0 2500 -2500 0 -2500 0 0
-2500z m2418 613 c-21 -104 -52 -262 -67 -353 l-28 -165 -77 -19 c-42 -10 -78
-17 -81 -15 -2 2 -11 76 -20 164 -9 88 -20 165 -24 172 -3 7 -19 -56 -35 -140
-16 -83 -32 -159 -36 -167 -8 -15 -127 -46 -137 -36 -3 3 9 74 26 158 39 194
91 499 91 538 l0 30 65 2 c36 1 73 2 82 2 15 1 23 -25 50 -164 18 -91 33 -167
33 -170 1 -3 17 67 36 155 19 88 36 165 38 172 4 10 28 15 102 21 20 2 20 -2
-18 -185z m871 159 c54 -40 66 -77 65 -197 -1 -131 -30 -235 -92 -331 -45 -69
-130 -149 -187 -175 -49 -23 -126 -24 -165 -4 -52 27 -75 86 -75 190 1 230
152 484 316 534 46 14 107 6 138 -17z m-550 -2 c39 -11 86 -52 107 -93 8 -15
17 -56 21 -90 16 -176 -120 -418 -281 -497 -65 -32 -145 -50 -194 -42 l-29 4
28 136 c15 76 44 234 65 352 20 118 38 216 39 217 1 2 26 7 56 12 75 12 148
13 188 1z m-762 -37 c-18 -121 -107 -657 -110 -659 -5 -5 -152 -22 -156 -18
-2 2 6 54 19 116 12 62 39 216 60 341 20 125 40 230 42 233 7 6 86 22 122 23
28 1 28 0 23 -36z m-171 -750 c-9 -31 -35 -233 -50 -383 -24 -244 -28 -295
-23 -290 2 3 46 147 97 320 51 173 96 318 99 322 7 8 263 39 269 33 2 -2 -1
-90 -7 -197 -6 -106 -13 -264 -17 -350 -7 -175 0 -161 -89 -173 -27 -3 -58 -9
-68 -11 -17 -5 -18 0 -12 58 3 34 8 73 11 86 4 20 1 22 -40 22 l-45 0 -16 -52
c-8 -28 -15 -57 -15 -64 0 -22 -25 -32 -104 -39 -70 -6 -78 -5 -73 9 4 9 5 16
4 16 -1 0 -40 -7 -86 -15 -47 -8 -86 -13 -88 -12 -2 3 20 228 32 322 6 53 4
48 -68 -150 l-62 -170 -58 -3 -57 -3 0 29 c0 27 10 142 25 290 6 55 -7 65 -19
15 -4 -16 -25 -94 -47 -175 -46 -164 -40 -158 -146 -158 l-61 0 24 78 c81 256
174 561 180 588 l6 31 105 9 c57 5 106 8 107 7 2 -2 -9 -85 -25 -186 -24 -162
-27 -201 -16 -186 2 2 23 56 46 119 23 63 56 147 72 186 l30 72 67 10 c109 15
124 15 118 -5z m1703 -11 c54 -40 66 -77 65 -197 -1 -131 -30 -235 -92 -331
-45 -69 -130 -149 -187 -175 -49 -23 -126 -24 -165 -4 -52 27 -75 86 -75 190
1 230 152 484 316 534 46 14 107 6 138 -17z m-891 -6 c55 -28 78 -74 68 -130
-6 -31 -11 -34 -76 -53 l-70 -21 0 27 c0 15 -6 36 -14 46 -12 16 -18 17 -39 8
-14 -7 -34 -24 -43 -38 -23 -35 -9 -63 58 -113 89 -66 108 -102 108 -200 0
-133 -116 -242 -259 -242 -53 0 -126 32 -148 67 -15 23 -15 28 17 94 34 68 34
69 54 50 28 -25 81 -51 105 -51 11 0 32 10 47 23 38 33 27 65 -43 124 -132
111 -153 147 -134 220 35 128 262 244 369 189z m436 -7 c35 -27 56 -70 56
-111 0 -33 -2 -34 -62 -50 -40 -11 -66 -14 -72 -8 -28 28 -68 -3 -109 -86 -67
-133 -87 -275 -41 -282 20 -3 76 48 85 77 6 16 109 -27 109 -45 0 -7 -19 -41
-43 -76 -111 -163 -276 -171 -322 -15 -63 213 74 539 254 603 56 20 114 17
145 -7z m920 -45 c-17 -82 -19 -84 -52 -84 -57 0 -57 -1 -112 -354 -16 -104
-33 -193 -37 -196 -9 -8 -164 -32 -170 -27 -2 2 3 33 11 68 25 108 86 448 86
480 0 25 -4 29 -29 29 -61 0 -72 22 -55 106 l6 29 71 -3 c40 -1 115 1 167 6
52 5 102 10 111 11 15 1 15 -5 3 -65z"/>
<path d="M3120 3071 c-63 -33 -126 -154 -137 -267 -5 -44 -2 -55 16 -73 45
-45 129 0 173 91 48 97 62 204 32 246 -19 27 -39 28 -84 3z"/>
<path d="M2591 2933 c-23 -115 -44 -218 -47 -230 -13 -65 60 21 108 127 40 87
70 207 63 247 -5 30 -44 63 -73 63 -5 0 -28 -93 -51 -207z"/>
<path d="M2028 2310 c-18 -59 -68 -265 -68 -282 0 -5 15 -8 33 -6 l32 3 13
135 c7 74 11 151 10 170 -3 34 -4 34 -20 -20z"/>
<path d="M3340 2271 c-63 -33 -126 -154 -137 -267 -5 -44 -2 -55 17 -74 44
-44 127 0 172 92 48 97 62 204 32 246 -19 27 -39 28 -84 3z"/>
</g>
</svg>
